<svg width="100" height="9" viewBox="0 0 100 9" fill="none" xmlns="http://www.w3.org/2000/svg">
<path d="M1 1L6.14987 6.49319C7.39308 7.81928 9.52058 7.7439 10.6668 6.33314L12.8332 3.66685C13.9794 2.2561 16.1069 2.18072 17.3501 3.50681L20.1499 6.49319C21.3931 7.81928 23.5206 7.7439 24.6668 6.33314L26.8332 3.66685C27.9794 2.2561 30.1069 2.18072 31.3501 3.50681L34.1499 6.49319C35.3931 7.81928 37.5206 7.7439 38.6668 6.33314L40.8332 3.66685C41.9794 2.2561 44.1069 2.18072 45.3501 3.50681L48.1499 6.49319C49.3931 7.81928 51.5206 7.7439 52.6668 6.33314L54.8332 3.66685C55.9794 2.2561 58.1069 2.18072 59.3501 3.50681L62.1499 6.49319C63.3931 7.81928 65.5206 7.7439 66.6668 6.33314L68.8332 3.66685C69.9794 2.2561 72.1069 2.18072 73.3501 3.50681L76.1499 6.49319C77.3931 7.81928 79.5206 7.7439 80.6668 6.33314L82.8332 3.66685C83.9794 2.2561 86.1069 2.18072 87.3501 3.50681L90.1499 6.49319C91.3931 7.81928 93.5206 7.7439 94.6668 6.33314L99 1" stroke="#D6D6D6" stroke-width="2" stroke-linecap="round" stroke-linejoin="round"/>
</svg>
