<svg width="69" height="35" viewBox="0 0 69 35" fill="none" xmlns="http://www.w3.org/2000/svg">
<path fill-rule="evenodd" clip-rule="evenodd" d="M40.1281 6.3C40.1281 9.77939 37.4629 12.6 34.1753 12.6C30.8877 12.6 28.2226 9.77939 28.2226 6.3C28.2226 2.82061 30.8877 0 34.1753 0C37.4629 0 40.1281 2.82061 40.1281 6.3ZM21.3252 14H47.1205C45.5142 15.6 44.4748 17.7 43.8134 19.3H40.7898L39.7504 31.5C39.7504 32.8 38.8055 34 37.5772 34.1C36.4433 34.2 35.215 34.3 34.0811 34.3C32.9472 34.3 31.8134 34.2 30.6795 34.1C29.4512 33.9 28.5063 32.8 28.5063 31.5L27.3724 19.3H24.5378C23.8764 17.7 22.9315 15.6 21.3252 14Z" fill="#E0DE9F"/>
<path fill-rule="evenodd" clip-rule="evenodd" d="M18.5852 6.3C18.5852 9.77939 15.9201 12.6 12.6324 12.6C9.34483 12.6 6.67969 9.77939 6.67969 6.3C6.67969 2.82061 9.34483 0 12.6324 0C15.9201 0 18.5852 2.82061 18.5852 6.3ZM23.4985 22.8L23.4985 22.8C24.0655 24.2 24.7269 26.9 25.1993 29.2C25.4828 30.4 24.8214 31.7 23.6875 32.2H23.593C22.1757 32.8 20.5694 31.9 20.1915 30.3C19.719 28.1 19.1521 25.8 18.7741 24.8C18.739 24.6883 18.6907 24.5628 18.6391 24.4285C18.552 24.2022 18.4555 23.9511 18.3962 23.7L18.2072 31.6C18.2072 32.9 17.2623 34.1 16.034 34.2C14.9946 34.3 13.7663 34.4 12.6324 34.4C11.4985 34.4 10.3647 34.3 9.23083 34.2C8.00248 34 7.0576 32.9 7.0576 31.6L6.86862 23.7C6.80931 23.9511 6.71277 24.2022 6.62573 24.4285C6.57412 24.5628 6.52584 24.6883 6.49067 24.8C6.11272 25.7 5.54579 28.1 5.07335 30.3C4.69539 31.9 3.08909 32.8 1.67177 32.2H1.57728C0.443424 31.7 -0.217993 30.5 0.0654711 29.2C0.537912 27 1.19933 24.2 1.76626 22.8C1.80454 22.6785 1.85833 22.5569 1.91506 22.4287C1.99836 22.2405 2.088 22.038 2.14421 21.8C2.15432 21.7711 2.16452 21.742 2.1748 21.7126C3.1258 18.9936 4.8374 14.1 9.23083 14.1H16.034C20.3804 14.1 22.1757 19.1 23.1206 21.8C23.3096 22.2 23.404 22.5 23.4985 22.8Z" fill="#FF6737"/>
<path fill-rule="evenodd" clip-rule="evenodd" d="M61.6721 6.3C61.6721 9.77939 59.007 12.6 55.7194 12.6C52.4318 12.6 49.7666 9.77939 49.7666 6.3C49.7666 2.82061 52.4318 0 55.7194 0C59.007 0 61.6721 2.82061 61.6721 6.3ZM66.2075 21.8C66.3965 22.2 66.491 22.5 66.5855 22.8C67.1524 24.2 67.8138 26.9 68.2862 29.2C68.5697 30.4 67.9083 31.7 66.7744 32.2H66.6799C65.2626 32.8 63.6563 31.9 63.2784 30.3C62.8059 28.1 62.239 25.8 61.861 24.8C61.8259 24.6883 61.7776 24.5628 61.726 24.4285C61.639 24.2022 61.5424 23.9511 61.4831 23.7L61.2941 31.6C61.2941 32.9 60.3492 34.1 59.1209 34.2C58.0815 34.3 56.8532 34.4 55.7193 34.4C54.5855 34.4 53.4516 34.3 52.3177 34.2C51.0894 34 50.1445 32.9 50.1445 31.6L49.9555 23.7C49.8962 23.9511 49.7997 24.2022 49.7126 24.4285C49.661 24.5628 49.6128 24.6883 49.5776 24.8C49.1996 25.7 48.6327 28.1 48.1603 30.3C47.7823 31.9 46.176 32.8 44.7587 32.2H44.6642C43.5303 31.7 42.8689 30.5 43.1524 29.2C43.6248 27 44.2862 24.2 44.8532 22.8C44.8915 22.6785 44.9452 22.5569 45.002 22.4287C45.0853 22.2405 45.1749 22.038 45.2311 21.8C45.2412 21.7711 45.2514 21.742 45.2617 21.7126C46.2127 18.9936 47.9243 14.1 52.3177 14.1H52.5067H58.9319H59.1209C63.4673 14.1 65.2626 19.1 66.2075 21.8Z" fill="#FFD642"/>
</svg>
