<svg width="116" height="34" viewBox="0 0 116 34" fill="none" xmlns="http://www.w3.org/2000/svg">
<path d="M25.6928 18.0289C25.6928 16.4643 24.345 15.1902 22.6871 15.1902H21.0789C19.4223 15.1902 18.0732 16.4643 18.0732 18.0289C18.0732 18.1161 18.0981 18.1988 18.1064 18.2849H25.6644C25.6739 18.1999 25.6928 18.1161 25.6928 18.0289Z" fill="#E0DE9F"/>
<path d="M2.30169 18.2859H9.85969C9.86797 18.1998 9.8869 18.1171 9.8869 18.03C9.8869 16.4653 8.53908 15.1912 6.8824 15.1912H5.27424C3.61756 15.1912 2.26855 16.4653 2.26855 18.03C2.26855 18.116 2.2934 18.1998 2.30169 18.2859Z" fill="#E0DE9F"/>
<path d="M30.2616 18.2867C30.2557 18.1995 30.2285 18.1179 30.2285 18.0307C30.2285 15.8262 32.1266 14.0331 34.4589 14.0331H36.0671C38.3995 14.0331 40.2975 15.8262 40.2975 18.0307C40.2975 18.1179 40.275 18.2007 40.2703 18.2867H42.553V4.25256H14.593V18.2867H16.8828C16.8769 18.2007 16.8496 18.1179 16.8496 18.0307C16.8496 15.8262 18.7477 14.0331 21.0801 14.0331H22.6882C25.0206 14.0331 26.9187 15.8262 26.9187 18.0307C26.9187 18.1168 26.8974 18.2007 26.8915 18.2867H28.573H30.2616Z" fill="#FF6737"/>
<path d="M16.8946 3.0946H24.4515C24.4598 3.00855 24.4787 2.92585 24.4787 2.83868C24.4787 1.27405 23.1309 0 21.473 0H19.8648C18.2081 0 16.8591 1.27405 16.8591 2.83868C16.8615 2.92473 16.8863 3.00743 16.8946 3.0946Z" fill="#FF6737"/>
<path d="M0 33.478H27.96V19.4449H13.98H0V33.478Z" fill="#E0DE9F"/>
<path d="M57.146 19.4449H43.166H29.186V33.478H57.146V19.4449Z" fill="#FFD642"/>
<path d="M91.6927 18.0289C91.6927 16.4643 90.3449 15.1902 88.6871 15.1902H87.0789C85.4222 15.1902 84.0732 16.4643 84.0732 18.0289C84.0732 18.1161 84.0981 18.1988 84.1064 18.2849H91.6643C91.6738 18.1999 91.6927 18.1161 91.6927 18.0289Z" fill="#E0DE9F"/>
<path d="M69.3017 18.2859H76.8597C76.868 18.1998 76.8869 18.1171 76.8869 18.03C76.8869 16.4653 75.5391 15.1912 73.8824 15.1912H72.2742C70.6176 15.1912 69.2686 16.4653 69.2686 18.03C69.2686 18.116 69.2934 18.1998 69.3017 18.2859Z" fill="#E0DE9F"/>
<path d="M112.272 30.6312C113.929 30.6312 115.278 29.3579 115.278 27.7917L115.278 26.2725C115.278 24.7075 113.929 23.433 112.272 23.433C112.18 23.433 112.092 23.4565 112.001 23.4643L112.001 30.6044C112.091 30.6133 112.18 30.6312 112.272 30.6312Z" fill="#FFD642"/>
<path d="M112 9.47832L112 16.6184C112.091 16.6262 112.179 16.6441 112.271 16.6441C113.928 16.6441 115.277 15.3708 115.277 13.8057L115.277 12.2865C115.277 10.7214 113.928 9.44702 112.271 9.44702C112.18 9.44702 112.091 9.4705 112 9.47832Z" fill="#FFD642"/>
<path d="M67 32.9271H94.96V18.8941H80.98H67V32.9271Z" fill="#E0DE9F"/>
<path d="M96 6.65075L96 19.8577L96 33.0646L110.854 33.0646L110.854 6.65075L96 6.65075Z" fill="#FFD642"/>
<path d="M47.2924 18.2859H54.8492C54.8587 18.1998 54.8765 18.1171 54.8765 18.03C54.8765 16.4653 53.5286 15.1912 51.8731 15.1912H50.265C48.6071 15.1912 47.2593 16.4653 47.2593 18.03C47.2593 18.116 47.2853 18.1998 47.2924 18.2859Z" fill="#FFD642"/>
<path d="M36.0673 15.1902H34.4591C32.8024 15.1902 31.4546 16.4643 31.4546 18.0289C31.4546 18.1172 31.4794 18.1988 31.4877 18.2849H39.0457C39.054 18.1988 39.0718 18.1161 39.0718 18.0289C39.0718 16.4643 37.7239 15.1902 36.0673 15.1902Z" fill="#FFD642"/>
<path d="M32.6991 3.0946H40.2571C40.2654 3.00855 40.2844 2.92697 40.2844 2.83868C40.2844 1.27405 38.9354 0 37.2799 0H35.6717C34.0138 0 32.666 1.27405 32.666 2.83868C32.666 2.92473 32.6909 3.00855 32.6991 3.0946Z" fill="#FF6737"/>
</svg>
